PathFileType	4	(X/Y/Z)	C:/Users/beibeiliu/ov580/test_trc/User3\sequence.30_training_dense_right.trc
DataRate	CameraRate	NumFrames	NumMarkers	Units	OrigDataRate	OrigDataStartFrame	OrigNumFrames
120	120	10	19	mm	120	30	239
Frame#	Time	ThumbCMC			ThumbMCP			ThumbIP			ThumbTip			IndexMCP			IndexPIP			IndexTip			MiddleMCP			MiddlePIP			MiddleTip			RingMCP			RingPIP			RingTip			PinkyMCP			PinkyPIP			PinkyTip			BackHand1			BackHand2			BackHand3	
		X0	Y0	Z0	X1	Y1	Z1	X2	Y2	Z2	X3	Y3	Z3	X4	Y4	Z4	X5	Y5	Z5	X6	Y6	Z6	X7	Y7	Z7	X8	Y8	Z8	X9	Y9	Z9	X10	Y10	Z10	X11	Y11	Z11	X12	Y12	Z12	X13	Y13	Z13	X14	Y14	Z14	X15	Y15	Z15	X16	Y16	Z16	X17	Y17	Z17	X18	Y18	Z18	
29	0.241667	134.249	-16.9636	30.6538	121.93	-25.8406	-0.350487	120.834	-31.8139	-33.4961	143.196	-40.0938	-50.4467	153.633	15.4635	-41.2979	144.974	5.85363	-67.601	133.637	-24.0681	-58.5109	171.327	5.14197	-50.0764	160.739	-18.8803	-68.3076	148.199	-38.8722	-35.103	184.051	-14.9093	-42.3361	170.516	-41.4673	-52.91	160.585	-48.2309	-21.5272	195.917	-28.0884	-31.5011	181.694	-52.4814	-39.5819	174.843	-60.6505	-12.6624	192.586	-0.362194	11.1376	196.581	-7.08569	43.4351	159.882	7.4394	30.3932	
30	0.25	132.546	-14.0122	28.829	120.904	-21.4421	-1.88573	121.452	-28.2317	-30.2852	138.129	-36.4662	-48.3119	149.264	18.1504	-38.3314	144.97	2.45919	-65.7021	133.086	-23.6918	-52.9524	168.916	4.47803	-48.4354	156.831	-20.8735	-65.3336	150.782	-36.8636	-30.4301	181.945	-14.5342	-43.8746	166.899	-40.3097	-50.5943	163.066	-45.4526	-15.0612	192.8	-26.3322	-32.1047	177.241	-47.5129	-38.1584	171.543	-55.1533	-11.4691	193.465	-0.581599	12.6439	194.184	-7.2481	41.3477	161.96	8.88836	31.3743	
31	0.258333	133.426	-12.2957	30.7028	121.441	-18.0985	-3.65673	120.848	-23.4427	-30.8337	137.517	-32.9249	-52.3672	153.307	18.2672	-35.9093	141.292	2.17658	-64.0246	133.283	-23.2028	-44.2643	168.331	4.5069	-49.1887	155.601	-22.0692	-61.4064	148.298	-32.935	-21.3058	178.604	-14.2474	-43.1952	166.006	-40.9392	-45.4504	158.154	-42.8054	-14.9862	193.881	-27.1562	-32.0078	176.166	-46.5692	-36.0639	168.513	-48.7587	-6.98827	192.156	1.36357	12.5139	193.481	-4.9867	44.9173	165.736	9.06159	31.2539	
32	0.266667	131.353	-8.86124	33.878	119.787	-13.8378	-3.37417	118.892	-18.3455	-33.5622	137.586	-29.1392	-52.0931	153.152	21.1146	-35.1795	136.402	3.04994	-61.6171	129.172	-17.4666	-41.0898	166.365	4.65411	-44.5164	147.922	-21.9575	-56.0582	150.037	-30.8181	-17.3068	178.301	-13.6899	-40.5215	161.622	-39.0732	-43.2348	159.8	-38.9728	-8.19164	191.62	-25.6843	-30.6478	175.013	-49.2221	-32.8755	168.71	-43.5296	-1.60919	196.659	1.64962	13.9765	197.841	-8.40363	42.0092	167.789	11.9397	29.208	
33	0.275	134.268	-5.89471	32.3851	118.318	-11.3839	1.48254	117.682	-17.6778	-29.6765	135.754	-27.8755	-52.7487	152.064	24.1701	-39.7098	138.774	6.75818	-62.3348	129.937	-17.4329	-41.679	168.044	1.5401	-43.9552	146.308	-23.0856	-53.2396	145.613	-28.3828	-14.4217	175.946	-17.7665	-42.2711	159.477	-41.0174	-38.567	159.982	-38.7483	-6.17641	188.141	-29.1559	-32.9176	169.376	-49.0617	-29.2238	168.127	-43.711	4.64282	197.668	3.01127	13.0656	196.999	-6.15427	40.1493	166.107	13.5187	32.7465	
34	0.283333	137.804	-2.08611	30.603	119.762	-6.6867	-0.813663	120.663	-15.0444	-26.11	134.284	-27.9205	-50.9025	159.039	21.2549	-38.3389	138.483	8.48233	-64.6072	125.346	-14.8	-50.834	161.267	1.16832	-46.821	142.948	-23.424	-49.5915	147.358	-25.1243	-8.31927	172.423	-18.1773	-39.3331	155.691	-40.7856	-34.6153	155.665	-31.7582	0.864741	184.102	-32.299	-31.2728	164.653	-49.5817	-23.2373	164.931	-40.6956	5.5799	199.291	-2.72444	12.2011	198.299	-9.48113	42.097	171.017	14.6196	28.9071	
35	0.291667	140.062	0.0788286	34.2273	121.663	-4.36828	-1.27362	117.678	-13.8497	-28.231	135.254	-29.2998	-43.815	159.349	24.8642	-41.7512	148.623	12.2934	-66.1854	124.714	-8.71046	-66.7424	161.24	-3.79744	-48.0355	139.53	-26.8705	-44.7562	147.218	-26.6023	-6.30452	172.445	-23.5963	-37.3063	147.863	-41.1156	-26.5308	157.344	-31.0402	5.93016	178.457	-35.9171	-31.5243	160.31	-48.5421	-21.4684	164.651	-39.5552	8.63093	199.383	-0.718614	10.2654	200.923	-10.6153	42.882	177.207	14.0623	28.4986	
36	0.3	141.639	4.29581	29.3928	122.223	-4.05031	2.3918	119.288	-15.5751	-31.1172	133.304	-33.9375	-43.1427	164.693	19.7892	-42.6716	151.037	15.9206	-70.31	133.406	-4.33188	-81.4061	157.806	-5.65278	-47.3886	136.858	-27.5273	-42.9453	143.197	-21.5851	-1.87264	168.016	-26.1114	-36.2583	144.991	-42.5767	-21.5724	154.033	-28.881	6.88069	178.861	-41.1035	-28.4607	153.894	-51.5747	-13.0501	158.84	-40.6412	10.0669	198.748	-5.86338	7.5063	201.257	-9.30725	35.9428	178.795	13.8206	28.5215	
37	0.308333	143.864	4.83357	31.4961	120.35	-2.18616	1.54912	117.153	-18.2136	-30.6993	131.774	-39.1308	-40.4535	165.98	16.2237	-43.4259	159.096	12.3643	-71.4348	139.775	3.86991	-92.8923	158.912	-11.5325	-48.3079	134.974	-31.0633	-40.6783	145.016	-23.106	-2.5876	165.961	-30.4579	-36.7521	140.853	-43.1006	-19.1977	149.54	-29.0001	7.03395	172.868	-46.9184	-28.1045	149.899	-52.0059	-11.3382	158.859	-37.1772	12.8703	201.642	-10.449	6.38512	205.102	-14.7097	33.7969	181.667	13.366	20.1939	
38	0.316667	144.727	8.42889	30.058	121.531	-0.779312	0.453531	116.832	-18.4304	-29.2686	127.006	-40.2594	-37.5934	167.717	13.3389	-49.3677	160.607	12.1724	-75.2947	149.046	3.02423	-98.1479	160.264	-16.2346	-48.0741	131.135	-28.747	-41.4606	141.464	-19.1822	-1.88456	159.887	-32.6421	-37.2698	139.016	-45.1719	-21.9916	147.381	-28.0355	7.06285	171.68	-47.5422	-26.991	148.65	-54.6643	-13.9263	155.173	-39.2191	10.7496	199.491	-13.8875	4.91374	202.501	-13.8943	32.7322	184.976	12.8163	18.769	
